<svg height="512" viewBox="0 0 64 64" width="512" xmlns="http://www.w3.org/2000/svg"><g id="Filled_outline" data-name="Filled outline"><path d="m21 37h22v24h-22z" fill="#dd3e46"/><path d="m16 37v-11a2 2 0 0 0 -2-2h-8a2 2 0 0 0 -2 2 2 2 0 0 0 2 2h4v13a2 2 0 0 0 2 2h9v-6z" fill="#ffd782"/><path d="m48 37v-11a2 2 0 0 1 2-2h8a2 2 0 0 1 2 2 2 2 0 0 1 -2 2h-4v13a2 2 0 0 1 -2 2h-9v-6z" fill="#ffd782"/><path d="m16 34h-6v7a2 2 0 0 0 2 2h9v-6h-5z" fill="#f98c96"/><path d="m10 30h6v4h-6z" fill="#fcf05a"/><path d="m48 34h6v7a2 2 0 0 1 -2 2h-9v-6h5z" fill="#f98c96"/><path d="m48 30h6v4h-6z" fill="#fcf05a" transform="matrix(-1 0 0 -1 102 64)"/><circle cx="32" cy="50" fill="#fcf05a" r="7"/><path d="m22 13h20v20h-20z" fill="#ffd782"/><path d="m22 25a4 4 0 0 1 0-8z" fill="#f9bb4b"/><path d="m42 17a4 4 0 0 1 0 8z" fill="#f9bb4b"/><path d="m28 26h8a0 0 0 0 1 0 0v1a4 4 0 0 1 -4 4 4 4 0 0 1 -4-4v-1a0 0 0 0 1 0 0z" fill="#dd3e46"/><path d="m38 5a2 2 0 0 1 -2 2h-12a2 2 0 0 0 -2 2v4h20v-10h-2a2 2 0 0 0 -2 2z" fill="#394d5c"/><path d="m27 22a5 5 0 0 0 5-5h-10a5 5 0 0 0 5 5z" fill="#195c85"/><path d="m37 22a5 5 0 0 0 5-5h-10a5 5 0 0 0 5 5z" fill="#195c85"/><path d="m3 57h12v4h-12z" fill="#fcf05a"/><path d="m5 53h12v4h-12z" fill="#f9bb4b"/><path d="m3 49h12v4h-12z" fill="#fcf05a"/><path d="m49 57h12v4h-12z" fill="#f9bb4b" transform="matrix(-1 0 0 -1 110 118)"/><path d="m47 53h12v4h-12z" fill="#fcf05a" transform="matrix(-1 0 0 -1 106 110)"/><path d="m49 49h12v4h-12z" fill="#f9bb4b" transform="matrix(-1 0 0 -1 110 102)"/><path d="m52 44a3 3 0 0 0 3-3v-12h3a3 3 0 0 0 0-6h-8a3 3 0 0 0 -3 3v10h-30v-10a3 3 0 0 0 -3-3h-8a3 3 0 0 0 0 6h3v12a3 3 0 0 0 3 3h8v18h24v-18zm-3-18a1 1 0 0 1 1-1h8a1 1 0 0 1 0 2h-5v2h-4zm0 5h4v2h-4zm-5 7h5v-3h4v6a1 1 0 0 1 -1 1h-8zm-13 6.09v.91a3 3 0 0 0 0 6h2a1 1 0 0 1 0 2h-4v2h2v.91a5.993 5.993 0 0 1 0-11.82zm2 10.91a3 3 0 0 0 0-6h-2a1 1 0 0 1 0-2h4v-2h-2v-.91a5.993 5.993 0 0 1 0 11.82zm-1-13a7.959 7.959 0 0 0 -2.714.484l-2.563-4.484h10.554l-2.563 4.484a7.959 7.959 0 0 0 -2.714-.484zm-26-15a1 1 0 0 1 0-2h8a1 1 0 0 1 1 1v3h-4v-2zm5 4h4v2h-4zm1 11a1 1 0 0 1 -1-1v-6h4v3h5v4zm30 18h-20v-22h2.42l3.08 5.391a8 8 0 1 0 9 0l3.08-5.391h2.42z"/><path d="m43 2h-3a3 3 0 0 0 -3 3 1 1 0 0 1 -1 1h-12a3 3 0 0 0 -3 3v7.1a5 5 0 0 0 0 9.8v8.1h22v-8.1a5 5 0 0 0 0-9.8zm-20 7a1 1 0 0 1 1-1h12a3 3 0 0 0 3-3 1 1 0 0 1 1-1h1v8h-18zm18 5v2h-18v-2zm-.127 4a4 4 0 0 1 -7.746 0zm-10 0a4 4 0 0 1 -7.746 0zm-11.873 3a3.006 3.006 0 0 1 2-2.829v5.658a3.006 3.006 0 0 1 -2-2.829zm22 11h-18v-10.54a5.981 5.981 0 0 0 9-1.15 5.981 5.981 0 0 0 9 1.15zm4-11a3.006 3.006 0 0 1 -2 2.829v-5.658a3.006 3.006 0 0 1 2 2.829z"/><path d="m37 27v-2h-10v2a5 5 0 0 0 10 0zm-5 3a3 3 0 0 1 -3-3h6a3 3 0 0 1 -3 3z"/><path d="m17 52h-1v-3a1 1 0 0 0 -1-1h-12a1 1 0 0 0 -1 1v4a1 1 0 0 0 1 1h1v2h-1a1 1 0 0 0 -1 1v4a1 1 0 0 0 1 1h12a1 1 0 0 0 1-1v-3h1a1 1 0 0 0 1-1v-4a1 1 0 0 0 -1-1zm-13-2h10v2h-10zm10 10h-10v-2h10zm2-4h-10v-2h10z"/><path d="m61 48h-12a1 1 0 0 0 -1 1v3h-1a1 1 0 0 0 -1 1v4a1 1 0 0 0 1 1h1v3a1 1 0 0 0 1 1h12a1 1 0 0 0 1-1v-4a1 1 0 0 0 -1-1h-1v-2h1a1 1 0 0 0 1-1v-4a1 1 0 0 0 -1-1zm-1 12h-10v-2h10zm-2-4h-10v-2h10zm2-4h-10v-2h10z"/><path d="m48 2v2a3 3 0 0 0 0 6h2a1 1 0 0 1 0 2h-4v2h2v2h2v-2a3 3 0 0 0 0-6h-2a1 1 0 0 1 0-2h4v-2h-2v-2z"/><path d="m53 12a3 3 0 0 0 3 3h2a1 1 0 0 1 0 2h-4v2h2v2h2v-2a3 3 0 0 0 0-6h-2a1 1 0 0 1 0-2h4v-2h-2v-2h-2v2a3 3 0 0 0 -3 3z"/><path d="m14 2v2a3 3 0 0 0 0 6h2a1 1 0 0 1 0 2h-4v2h2v2h2v-2a3 3 0 0 0 0-6h-2a1 1 0 0 1 0-2h4v-2h-2v-2z"/><path d="m6 15h2a1 1 0 0 1 0 2h-4v2h2v2h2v-2a3 3 0 0 0 0-6h-2a1 1 0 0 1 0-2h4v-2h-2v-2h-2v2a3 3 0 0 0 0 6z"/><path d="m3 3h2v2h-2z"/><path d="m12 19h2v2h-2z"/><path d="m49 18h2v2h-2z"/><path d="m55 3h2v2h-2z"/></g></svg>