<svg xmlns="http://www.w3.org/2000/svg" height="512pt" version="1.1" viewBox="-34 0 512 512.00066" width="512pt">
<g id="surface1">
<path d="M 181.15625 496.730469 L 156.113281 397.574219 C 155.046875 393.355469 155.371094 388.90625 157.039062 384.886719 L 188.183594 309.707031 C 192.457031 299.394531 204.28125 294.496094 214.59375 298.769531 C 224.910156 303.042969 229.804688 314.867188 225.53125 325.179688 L 196.953125 394.171875 L 220.351562 486.832031 C 223.085938 497.65625 216.527344 508.644531 205.703125 511.378906 C 194.832031 514.125 183.875 507.507812 181.15625 496.730469 Z M 181.15625 496.730469 " style=" stroke:none;fill-rule:nonzero;fill:rgb(45.490196%,51.764706%,53.333333%);fill-opacity:1;" />
<path d="M 343.160156 424.6875 L 254.417969 414.210938 C 245.027344 413.101562 237.664062 405.632812 236.683594 396.226562 L 229.484375 327.054688 C 228.328125 315.949219 236.390625 306.011719 247.496094 304.855469 C 258.605469 303.703125 268.539062 311.765625 269.695312 322.871094 L 275.21875 375.957031 L 347.898438 384.539062 C 358.984375 385.847656 366.910156 395.894531 365.601562 406.980469 C 364.300781 418.019531 354.296875 425.996094 343.160156 424.6875 Z M 343.160156 424.6875 " style=" stroke:none;fill-rule:nonzero;fill:rgb(33.333333%,41.176471%,43.137255%);fill-opacity:1;" />
<path d="M 366.03125 58.738281 C 358.660156 53.058594 348.082031 54.433594 342.40625 61.804688 L 248.730469 183.414062 C 223.328125 183.414062 216.300781 183.414062 195.464844 183.414062 L 137.390625 164.316406 L 100.699219 104.980469 C 95.804688 97.070312 85.425781 94.621094 77.511719 99.515625 C 69.601562 104.40625 67.152344 114.789062 72.046875 122.699219 L 111.96875 187.261719 C 114.058594 190.632812 117.265625 193.164062 121.035156 194.402344 L 180.535156 213.96875 L 180.535156 327.242188 C 180.535156 336.964844 188.414062 344.84375 198.132812 344.84375 L 252.160156 344.84375 C 261.878906 344.84375 269.757812 336.964844 269.757812 327.242188 L 269.757812 211.242188 C 270.746094 210.09375 342.554688 116.804688 369.097656 82.359375 C 374.773438 74.988281 373.398438 64.414062 366.03125 58.738281 Z M 366.03125 58.738281 " style=" stroke:none;fill-rule:nonzero;fill:rgb(72.941176%,40.392157%,27.45098%);fill-opacity:1;" />
<path d="M 279.269531 143.867188 C 279.269531 143.867188 279.234375 143.847656 279.214844 143.835938 L 248.730469 183.414062 L 243.203125 183.414062 C 243.101562 192.527344 235.335938 200.246094 226.207031 200.246094 C 217.042969 200.246094 209.308594 192.558594 209.210938 183.414062 L 195.460938 183.414062 L 154.847656 170.058594 L 146.066406 202.636719 L 180.53125 213.96875 L 180.53125 327.246094 C 180.53125 336.964844 188.410156 344.84375 198.132812 344.84375 L 252.15625 344.84375 C 261.875 344.84375 269.753906 336.964844 269.753906 327.246094 L 269.753906 211.242188 C 270.214844 210.707031 305.394531 165.058594 305.394531 165.058594 Z M 279.269531 143.867188 " style=" stroke:none;fill-rule:nonzero;fill:rgb(100%,85.490196%,32.156863%);fill-opacity:1;" />
<path d="M 260.238281 137.378906 C 260.238281 156.65625 244.609375 172.289062 225.328125 172.289062 C 206.046875 172.289062 190.417969 156.65625 190.417969 137.378906 C 190.417969 118.097656 206.046875 102.464844 225.328125 102.464844 C 244.609375 102.464844 260.238281 118.097656 260.238281 137.378906 Z M 260.238281 137.378906 " style=" stroke:none;fill-rule:nonzero;fill:rgb(72.941176%,40.392157%,27.45098%);fill-opacity:1;" />
<path d="M 160.1875 70.460938 C 158.515625 70.496094 156.980469 69.546875 156.261719 68.039062 C 151.691406 58.453125 147.121094 48.867188 142.550781 39.28125 C 142.183594 38.507812 142.21875 37.601562 142.652344 36.859375 C 143.085938 36.117188 143.855469 35.640625 144.710938 35.582031 C 167.546875 33.996094 177.503906 5.855469 200.878906 5.371094 C 202.546875 5.335938 204.085938 6.285156 204.800781 7.792969 C 209.371094 17.378906 213.941406 26.964844 218.511719 36.550781 C 218.882812 37.324219 218.84375 38.230469 218.410156 38.972656 C 217.980469 39.714844 217.207031 40.191406 216.351562 40.25 C 193.515625 41.835938 183.558594 69.976562 160.1875 70.460938 Z M 160.1875 70.460938 " style=" stroke:none;fill-rule:nonzero;fill:rgb(22.352941%,68.235294%,58.823529%);fill-opacity:1;" />
<path d="M 183.175781 47.972656 C 179.871094 49.441406 176.394531 49.050781 175.554688 47.3125 C 175.105469 46.390625 175.261719 44.640625 176.292969 44.140625 C 177.433594 43.589844 179.128906 44.742188 181.308594 44.121094 L 179.175781 39.730469 C 176.222656 39.992188 172.726562 40.242188 171.042969 36.773438 C 169.375 33.328125 171.121094 30.441406 173.796875 28.640625 L 173.429688 27.878906 C 173.246094 27.5 173.507812 26.9375 174.105469 26.648438 C 174.621094 26.398438 175.304688 26.5 175.492188 26.878906 L 175.820312 27.558594 C 177.523438 26.796875 180.910156 25.691406 181.816406 27.5625 C 182.171875 28.292969 182.40625 30.023438 181.214844 30.601562 C 180.320312 31.035156 179.382812 30.417969 177.554688 31.136719 L 179.476562 35.097656 C 182.390625 34.820312 185.882812 34.703125 187.660156 38.363281 C 189.289062 41.726562 188.105469 44.808594 185.183594 46.863281 L 185.566406 47.648438 C 185.75 48.027344 185.40625 48.632812 184.890625 48.882812 C 184.292969 49.171875 183.6875 49.03125 183.503906 48.648438 Z M 177.371094 35.3125 L 175.804688 32.085938 C 174.703125 32.921875 174.488281 33.796875 174.804688 34.445312 C 175.1875 35.234375 176.128906 35.378906 177.371094 35.3125 Z M 181.320312 39.59375 L 183.085938 43.226562 C 183.898438 42.5625 184.382812 41.691406 183.910156 40.714844 C 183.476562 39.820312 182.519531 39.582031 181.320312 39.59375 Z M 181.320312 39.59375 " style=" stroke:none;fill-rule:nonzero;fill:rgb(15.294118%,47.058824%,40.392157%);fill-opacity:1;" />
<path d="M 319.839844 289.871094 C 318.183594 289.660156 316.804688 288.496094 316.316406 286.898438 C 313.210938 276.742188 310.101562 266.589844 306.996094 256.433594 C 306.746094 255.613281 306.917969 254.71875 307.453125 254.050781 C 307.992188 253.382812 308.824219 253.023438 309.679688 253.089844 C 332.5 254.890625 346.5 228.527344 369.6875 231.496094 C 371.34375 231.707031 372.722656 232.871094 373.210938 234.46875 C 376.316406 244.625 379.425781 254.777344 382.53125 264.933594 C 382.78125 265.753906 382.609375 266.648438 382.074219 267.316406 C 381.535156 267.984375 380.703125 268.34375 379.847656 268.277344 C 357.027344 266.476562 343.027344 292.839844 319.839844 289.871094 Z M 319.839844 289.871094 " style=" stroke:none;fill-rule:nonzero;fill:rgb(22.352941%,68.235294%,58.823529%);fill-opacity:1;" />
<path d="M 345.855469 270.933594 C 342.371094 271.898438 338.992188 271 338.417969 269.15625 C 338.109375 268.179688 338.523438 266.472656 339.613281 266.128906 C 340.824219 265.753906 342.332031 267.140625 344.578125 266.847656 L 343.117188 262.191406 C 340.15625 262.011719 336.664062 261.746094 335.511719 258.066406 C 334.367188 254.414062 336.519531 251.8125 339.433594 250.429688 L 339.179688 249.621094 C 339.054688 249.21875 339.398438 248.703125 340.03125 248.503906 C 340.578125 248.332031 341.242188 248.535156 341.367188 248.9375 L 341.59375 249.65625 C 343.394531 249.15625 346.902344 248.5625 347.523438 250.546875 C 347.769531 251.324219 347.746094 253.066406 346.480469 253.464844 C 345.53125 253.761719 344.695312 253.011719 342.785156 253.453125 L 344.097656 257.652344 C 347.019531 257.808594 350.492188 258.207031 351.710938 262.089844 C 352.828125 265.65625 351.199219 268.53125 348.007812 270.132812 L 348.269531 270.964844 C 348.394531 271.367188 347.964844 271.914062 347.417969 272.085938 C 346.785156 272.285156 346.210938 272.054688 346.082031 271.652344 Z M 341.980469 257.554688 L 340.910156 254.132812 C 339.699219 254.796875 339.359375 255.632812 339.574219 256.320312 C 339.835938 257.15625 340.746094 257.4375 341.980469 257.554688 Z M 345.257812 262.371094 L 346.46875 266.226562 C 347.371094 265.6875 347.976562 264.898438 347.652344 263.863281 C 347.355469 262.914062 346.449219 262.535156 345.257812 262.371094 Z M 345.257812 262.371094 " style=" stroke:none;fill-rule:nonzero;fill:rgb(15.294118%,47.058824%,40.392157%);fill-opacity:1;" />
<path d="M 397.121094 194.195312 C 395.539062 194.726562 393.789062 194.285156 392.652344 193.0625 C 385.421875 185.285156 378.1875 177.507812 370.957031 169.730469 C 370.371094 169.105469 370.136719 168.226562 370.328125 167.390625 C 370.519531 166.554688 371.109375 165.867188 371.910156 165.554688 C 393.222656 157.199219 394.292969 127.367188 416.445312 119.90625 C 418.027344 119.371094 419.777344 119.816406 420.914062 121.039062 C 428.144531 128.816406 435.378906 136.59375 442.609375 144.367188 C 443.195312 144.996094 443.429688 145.875 443.238281 146.710938 C 443.046875 147.546875 442.457031 148.234375 441.65625 148.546875 C 420.347656 156.902344 419.273438 186.730469 397.121094 194.195312 Z M 397.121094 194.195312 " style=" stroke:none;fill-rule:nonzero;fill:rgb(22.352941%,68.235294%,58.823529%);fill-opacity:1;" />
<path d="M 412.328125 165.738281 C 409.613281 168.132812 406.183594 168.796875 404.859375 167.394531 C 404.15625 166.648438 403.78125 164.933594 404.617188 164.148438 C 405.535156 163.277344 407.5 163.871094 409.390625 162.625 L 406.042969 159.070312 C 403.304688 160.207031 400.046875 161.496094 397.398438 158.6875 C 394.773438 155.902344 395.574219 152.621094 397.589844 150.101562 L 397.011719 149.488281 C 396.71875 149.179688 396.804688 148.566406 397.285156 148.109375 C 397.703125 147.71875 398.386719 147.609375 398.679688 147.917969 L 399.195312 148.464844 C 400.59375 147.226562 403.492188 145.160156 404.917969 146.675781 C 405.476562 147.265625 406.21875 148.84375 405.253906 149.753906 C 404.53125 150.4375 403.453125 150.128906 401.921875 151.363281 L 404.941406 154.5625 C 407.636719 153.429688 410.933594 152.269531 413.726562 155.230469 C 416.289062 157.949219 416.085938 161.246094 413.910156 164.082031 L 414.511719 164.71875 C 414.800781 165.023438 414.652344 165.703125 414.234375 166.097656 C 413.753906 166.550781 413.132812 166.597656 412.84375 166.289062 Z M 402.996094 155.398438 L 400.539062 152.789062 C 399.734375 153.917969 399.792969 154.816406 400.289062 155.34375 C 400.890625 155.976562 401.832031 155.835938 402.996094 155.398438 Z M 408.050781 158.300781 L 410.820312 161.238281 C 411.398438 160.359375 411.597656 159.386719 410.855469 158.59375 C 410.171875 157.871094 409.191406 157.929688 408.050781 158.300781 Z M 408.050781 158.300781 " style=" stroke:none;fill-rule:nonzero;fill:rgb(15.294118%,47.058824%,40.392157%);fill-opacity:1;" />
<path d="M 26.859375 237.40625 C 25.277344 237.9375 23.527344 237.492188 22.390625 236.273438 C 15.160156 228.496094 7.925781 220.71875 0.695312 212.941406 C 0.109375 212.3125 -0.125 211.4375 0.0664062 210.601562 C 0.257812 209.765625 0.847656 209.078125 1.648438 208.765625 C 22.960938 200.410156 24.03125 170.578125 46.183594 163.117188 C 47.765625 162.582031 49.515625 163.027344 50.652344 164.25 C 57.882812 172.023438 65.117188 179.800781 72.347656 187.578125 C 72.933594 188.207031 73.167969 189.085938 72.976562 189.921875 C 72.785156 190.757812 72.195312 191.441406 71.394531 191.757812 C 50.082031 200.109375 49.011719 229.941406 26.859375 237.40625 Z M 26.859375 237.40625 " style=" stroke:none;fill-rule:nonzero;fill:rgb(22.352941%,68.235294%,58.823529%);fill-opacity:1;" />
<path d="M 42.066406 208.949219 C 39.351562 211.339844 35.917969 212.007812 34.597656 210.605469 C 33.894531 209.859375 33.519531 208.140625 34.351562 207.355469 C 35.273438 206.488281 37.238281 207.078125 39.128906 205.835938 L 35.78125 202.28125 C 33.039062 203.414062 29.785156 204.703125 27.136719 201.898438 C 24.511719 199.113281 25.3125 195.832031 27.328125 193.3125 L 26.746094 192.699219 C 26.457031 192.390625 26.539062 191.777344 27.023438 191.320312 C 27.4375 190.929688 28.125 190.820312 28.414062 191.128906 L 28.929688 191.675781 C 30.332031 190.4375 33.230469 188.371094 34.65625 189.882812 C 35.214844 190.476562 35.957031 192.054688 34.992188 192.964844 C 34.265625 193.648438 33.1875 193.339844 31.660156 194.570312 L 34.679688 197.773438 C 37.375 196.636719 40.671875 195.480469 43.464844 198.4375 C 46.027344 201.160156 45.824219 204.457031 43.648438 207.292969 L 44.25 207.929688 C 44.539062 208.234375 44.390625 208.914062 43.972656 209.304688 C 43.492188 209.761719 42.871094 209.808594 42.582031 209.5 Z M 32.734375 198.609375 L 30.273438 196 C 29.472656 197.128906 29.53125 198.027344 30.027344 198.550781 C 30.628906 199.1875 31.570312 199.042969 32.734375 198.609375 Z M 37.785156 201.507812 L 40.554688 204.449219 C 41.136719 203.570312 41.335938 202.59375 40.59375 201.804688 C 39.910156 201.082031 38.929688 201.136719 37.785156 201.507812 Z M 37.785156 201.507812 " style=" stroke:none;fill-rule:nonzero;fill:rgb(15.294118%,47.058824%,40.392157%);fill-opacity:1;" />
<path d="M 70.488281 62.628906 C 70.289062 64.285156 69.132812 65.675781 67.539062 66.175781 C 57.410156 69.351562 47.273438 72.53125 37.140625 75.710938 C 36.324219 75.96875 35.429688 75.804688 34.757812 75.273438 C 34.085938 74.738281 33.71875 73.910156 33.78125 73.054688 C 35.414062 50.222656 8.953125 36.410156 11.753906 13.203125 C 11.953125 11.546875 13.109375 10.15625 14.703125 9.65625 C 24.832031 6.476562 34.964844 3.300781 45.097656 0.117188 C 45.917969 -0.136719 46.808594 0.0273438 47.484375 0.558594 C 48.15625 1.089844 48.519531 1.921875 48.460938 2.777344 C 46.828125 25.609375 73.289062 39.421875 70.488281 62.628906 Z M 70.488281 62.628906 " style=" stroke:none;fill-rule:nonzero;fill:rgb(22.352941%,68.235294%,58.823529%);fill-opacity:1;" />
<path d="M 51.332031 36.703125 C 52.324219 40.183594 51.445312 43.566406 49.609375 44.15625 C 48.632812 44.46875 46.921875 44.070312 46.574219 42.976562 C 46.183594 41.773438 47.566406 40.253906 47.257812 38.011719 L 42.609375 39.503906 C 42.453125 42.464844 42.214844 45.960938 38.539062 47.140625 C 34.894531 48.3125 32.28125 46.175781 30.875 43.273438 L 30.070312 43.53125 C 29.667969 43.660156 29.148438 43.320312 28.945312 42.6875 C 28.769531 42.140625 28.96875 41.476562 29.371094 41.347656 L 30.085938 41.117188 C 29.574219 39.320312 28.953125 35.816406 30.933594 35.179688 C 31.707031 34.933594 33.453125 34.941406 33.859375 36.203125 C 34.164062 37.152344 33.417969 37.992188 33.875 39.902344 L 38.0625 38.558594 C 38.199219 35.632812 38.574219 32.15625 42.445312 30.914062 C 46.003906 29.773438 48.894531 31.378906 50.515625 34.558594 L 51.347656 34.289062 C 51.75 34.160156 52.296875 34.585938 52.472656 35.132812 C 52.675781 35.765625 52.453125 36.34375 52.050781 36.472656 Z M 37.980469 40.671875 L 34.566406 41.769531 C 35.242188 42.980469 36.078125 43.3125 36.765625 43.089844 C 37.597656 42.824219 37.871094 41.910156 37.980469 40.671875 Z M 42.773438 37.359375 L 46.621094 36.125 C 46.078125 35.222656 45.28125 34.625 44.25 34.957031 C 43.304688 35.261719 42.929688 36.171875 42.773438 37.359375 Z M 42.773438 37.359375 " style=" stroke:none;fill-rule:nonzero;fill:rgb(15.294118%,47.058824%,40.392157%);fill-opacity:1;" />
<path d="M 309.570312 62.628906 C 309.371094 64.285156 308.21875 65.675781 306.625 66.175781 C 296.492188 69.351562 286.359375 72.53125 276.226562 75.710938 C 275.410156 75.96875 274.515625 75.804688 273.84375 75.273438 C 273.167969 74.738281 272.804688 73.910156 272.867188 73.054688 C 274.5 50.222656 248.035156 36.410156 250.839844 13.203125 C 251.039062 11.546875 252.191406 10.15625 253.785156 9.65625 C 263.917969 6.476562 274.050781 3.300781 284.183594 0.117188 C 285 -0.136719 285.894531 0.0273438 286.566406 0.558594 C 287.242188 1.089844 287.605469 1.921875 287.542969 2.777344 C 285.910156 25.609375 312.371094 39.421875 309.570312 62.628906 Z M 309.570312 62.628906 " style=" stroke:none;fill-rule:nonzero;fill:rgb(22.352941%,68.235294%,58.823529%);fill-opacity:1;" />
<path d="M 290.414062 36.703125 C 291.40625 40.183594 290.53125 43.566406 288.691406 44.15625 C 287.71875 44.46875 286.007812 44.070312 285.65625 42.976562 C 285.269531 41.773438 286.648438 40.253906 286.339844 38.011719 L 281.691406 39.503906 C 281.535156 42.464844 281.296875 45.960938 277.625 47.140625 C 273.980469 48.3125 271.363281 46.175781 269.957031 43.273438 L 269.152344 43.53125 C 268.75 43.660156 268.230469 43.320312 268.027344 42.6875 C 267.851562 42.140625 268.050781 41.476562 268.453125 41.347656 L 269.167969 41.117188 C 268.65625 39.320312 268.035156 35.816406 270.015625 35.179688 C 270.789062 34.933594 272.535156 34.941406 272.9375 36.203125 C 273.242188 37.152344 272.5 37.992188 272.957031 39.902344 L 277.144531 38.558594 C 277.28125 35.632812 277.65625 32.15625 281.527344 30.914062 C 285.085938 29.773438 287.976562 31.378906 289.597656 34.558594 L 290.429688 34.289062 C 290.832031 34.160156 291.378906 34.585938 291.554688 35.132812 C 291.757812 35.765625 291.535156 36.34375 291.132812 36.472656 Z M 277.066406 40.671875 L 273.652344 41.769531 C 274.324219 42.980469 275.160156 43.3125 275.847656 43.089844 C 276.679688 42.824219 276.957031 41.910156 277.066406 40.671875 Z M 281.859375 37.359375 L 285.703125 36.125 C 285.160156 35.222656 284.367188 34.625 283.332031 34.957031 C 282.386719 35.261719 282.015625 36.171875 281.859375 37.359375 Z M 281.859375 37.359375 " style=" stroke:none;fill-rule:nonzero;fill:rgb(15.294118%,47.058824%,40.392157%);fill-opacity:1;" />
</g>
</svg>