<svg id="Capa_1" enable-background="new 0 0 512 512" height="512" viewBox="0 0 512 512" width="512" xmlns="http://www.w3.org/2000/svg"><g><g><circle cx="256" cy="76" fill="#fff16b" r="76"/><g><path d="m332 76c0-41.907-34.094-76-76-76v152c41.906 0 76-34.093 76-76z" fill="#ffc178"/></g><circle cx="256" cy="76" fill="#ffc178" r="46"/><g><path d="m302 76c0-25.364-20.635-46-46-46v92c25.365 0 46-20.636 46-46z" fill="#ff936b"/></g></g><path d="m456.607 106.395c-3.145-3.146-7.512-4.731-11.955-4.334-2.429.219-57.061 5.509-104.272 39.228-25.315-12.325-54.003-19.289-84.38-19.289s-59.066 6.964-84.38 19.289c-47.211-33.719-101.843-39.009-104.272-39.228-4.436-.397-8.81 1.188-11.955 4.334s-4.732 7.525-4.332 11.956c.216 2.383 5.408 55.945 38.22 102.829-11.713 22.951-18.281 48.673-18.281 75.82 0 40.968 14.975 78.68 40 108.531v91.469c0 8.284 6.716 15 15 15h40c6.624 0 12.464-4.345 14.367-10.69l11.994-39.98c19.852 6.9 41.289 10.67 63.639 10.67 22.641 0 44.341-3.875 64.409-10.948l12.077 40.258c1.903 6.345 7.743 10.69 14.368 10.69h45c5.523 0 10-4.477 10-10v-97.494c24.511-29.686 39.146-67.005 39.146-107.506 0-27.147-6.568-52.869-18.281-75.821 32.811-46.884 38.004-100.446 38.22-102.829.401-4.431-1.186-8.81-4.332-11.955z" fill="#f1b7e7"/><path d="m456.607 106.395c-3.145-3.146-7.512-4.731-11.955-4.334-2.429.219-57.061 5.509-104.272 39.228-25.315-12.325-54.003-19.289-84.38-19.289v350c22.641 0 44.341-3.875 64.409-10.948l12.077 40.258c1.903 6.345 7.743 10.69 14.368 10.69h45c5.523 0 10-4.477 10-10v-97.494c24.511-29.686 39.146-67.005 39.146-107.506 0-27.147-6.568-52.869-18.281-75.821 32.811-46.884 38.004-100.446 38.22-102.829.401-4.431-1.186-8.81-4.332-11.955z" fill="#e78ef4"/><circle cx="326" cy="247" fill="#3d5959" r="15"/><circle cx="186" cy="247" fill="#0d8ebc" r="15"/><g><path d="m256 392c-44.859 0-80-24.159-80-55s35.141-55 80-55 80 24.159 80 55-35.141 55-80 55z" fill="#ffd1fc"/></g><g><path d="m336 337c0-30.841-35.14-55-80-55v110c44.86 0 80-24.159 80-55z" fill="#f1b7e7"/></g></g></svg>