<svg id="Capa_1" enable-background="new 0 0 512 512" height="512" viewBox="0 0 512 512" width="512" xmlns="http://www.w3.org/2000/svg"><g><path d="m327.96 7.5h-181.561c-7.711 0-13.664 7.094-12.668 15.095l8.774 115.141 17.403 20h151.943l20.003-20 8.774-115.141c.996-8.001-4.958-15.095-12.668-15.095z" fill="#365e7d"/><path d="m327.96 7.5h-20.366c7.711 0 13.664 7.094 12.668 15.095l-5.909 77.54c-.977 12.816-11.66 22.716-24.513 22.716h-148.469l1.134 14.884 13.263 20h155.72l20.366-20 8.774-115.141c.996-8-4.958-15.094-12.668-15.094z" fill="#2b4d66"/><path d="m139.305 95.74h195.748l2.182-28.622h-200.111z" fill="#dd636e"/><path d="m314.688 95.74h20.365l2.182-28.622h-20.366z" fill="#c63d4f"/><path d="m376.315 504.5h-278.272c-4.053 0-7.338-3.285-7.338-7.338v-100.61c0-53.704 43.536-97.24 97.24-97.24h98.468c53.704 0 97.24 43.536 97.24 97.24v100.61c0 4.052-3.285 7.338-7.338 7.338z" fill="#78c2a4"/><path d="m286.413 299.312h-27.526c53.704 0 97.24 43.536 97.24 97.24v107.948h20.188c4.053 0 7.338-3.285 7.338-7.338v-100.61c0-53.704-43.536-97.24-97.24-97.24z" fill="#66b394"/><g><path d="m411.246 504.5h-66.588c-5.55 0-10.049-4.499-10.049-10.049v-8.432c0-5.55 4.499-10.049 10.049-10.049h66.588c5.55 0 10.049 4.499 10.049 10.049v8.432c0 5.55-4.499 10.049-10.049 10.049z" fill="#eab14d"/><path d="m410.59 475.97h-18.44c5.912 0 10.705 4.223 10.705 9.433v9.663c0 5.21-4.793 9.433-10.705 9.433h18.44c5.912 0 10.705-4.223 10.705-9.433v-9.663c0-5.21-4.793-9.433-10.705-9.433z" fill="#e49542"/><path d="m411.246 475.97h-66.588c-5.55 0-10.049-4.499-10.049-10.049v-8.432c0-5.55 4.499-10.049 10.049-10.049h66.588c5.55 0 10.049 4.499 10.049 10.049v8.432c0 5.55-4.499 10.049-10.049 10.049z" fill="#f6e266"/><path d="m410.59 447.44h-18.44c5.912 0 10.705 4.223 10.705 9.433v9.663c0 5.21-4.793 9.433-10.705 9.433h18.44c5.912 0 10.705-4.223 10.705-9.433v-9.663c0-5.209-4.793-9.433-10.705-9.433z" fill="#ecbe6b"/><path d="m411.246 447.44h-66.588c-5.55 0-10.049-4.499-10.049-10.049v-8.432c0-5.55 4.499-10.049 10.049-10.049h66.588c5.55 0 10.049 4.499 10.049 10.049v8.432c0 5.55-4.499 10.049-10.049 10.049z" fill="#eab14d"/><path d="m410.59 418.911h-18.44c5.912 0 10.705 4.223 10.705 9.433v9.663c0 5.21-4.793 9.433-10.705 9.433h18.44c5.912 0 10.705-4.223 10.705-9.433v-9.663c0-5.21-4.793-9.433-10.705-9.433z" fill="#e49542"/><path d="m391.246 418.91h-66.588c-5.55 0-10.049-4.499-10.049-10.049v-8.432c0-5.55 4.499-10.049 10.049-10.049h66.588c5.55 0 10.049 4.499 10.049 10.049v8.432c0 5.55-4.499 10.049-10.049 10.049z" fill="#f6e266"/><path d="m390.59 390.381h-18.44c5.912 0 10.705 4.223 10.705 9.433v9.663c0 5.21-4.793 9.433-10.705 9.433h18.44c5.912 0 10.705-4.223 10.705-9.433v-9.663c0-5.21-4.793-9.433-10.705-9.433z" fill="#ecbe6b"/><circle cx="330.803" cy="464.606" fill="#f6e266" r="39.893"/><path d="m330.803 424.713c-3.26 0-6.425.4-9.458 1.138 17.465 4.248 30.435 19.983 30.435 38.756 0 18.772-12.97 34.507-30.435 38.755 3.033.738 6.198 1.138 9.458 1.138 22.032 0 39.893-17.861 39.893-39.893s-17.861-39.894-39.893-39.894z" fill="#ecbe6b"/></g><path d="m268.005 504.5h-61.652l15.807-108.826h30.038z" fill="#dd636e"/><path d="m237.179 427.124 39.409-54.253h-78.818z" fill="#365e7d"/><path d="m237.179 381.744-29.172 21.289c-2.724 1.988-6.594.784-7.709-2.399l-35.501-101.322 21.275-20.819 14.398 39.669z" fill="#ecf4ff"/><path d="m237.179 381.744 29.172 21.289c2.724 1.988 6.594.784 7.709-2.399l35.501-101.322-21.275-20.819-14.398 39.669z" fill="#ecf4ff"/><path d="m237.179 381.744 36.709-63.582h-73.418z" fill="#e2a770"/><path d="m142.505 167.504v70.791c0 52.287 42.387 94.674 94.674 94.674 52.287 0 94.674-42.387 94.674-94.674v-70.791l-21.344-10h-150.086z" fill="#f1d0a5"/><path d="m309.561 167.504h-167.056v14.884h145.2c12.071 0 21.857 9.786 21.857 21.857v34.049c0 48.515-36.495 88.501-83.528 94.018 3.656.429 7.374.656 11.146.656 52.287 0 94.674-42.387 94.674-94.674v-55.906-14.884z" fill="#f1b986"/><path d="m142.505 229.461h-15.18c-10.531 0-19.068-8.537-19.069-19.068 0-10.531 8.537-19.068 19.069-19.068h15.18z" fill="#e2a770"/><path d="m331.853 229.461h15.18c10.531 0 19.069-8.537 19.069-19.068 0-10.531-8.537-19.068-19.069-19.068h-15.18z" fill="#e2a770"/><path d="m350.017 167.504h-225.676c-4.066 0-7.363-3.297-7.363-7.363v-15.043c0-4.066 3.297-7.363 7.363-7.363h225.676c4.066 0 7.363 3.297 7.363 7.363v15.043c0 4.066-3.296 7.363-7.363 7.363z" fill="#365e7d"/><path d="m350.017 137.735h-16.525c4.066 0 7.363 3.297 7.363 7.363v15.042c0 4.066-3.297 7.363-7.363 7.363h16.525c4.067 0 7.363-3.297 7.363-7.363v-15.042c0-4.066-3.296-7.363-7.363-7.363z" fill="#2b4d66"/><circle cx="280.602" cy="223.232" fill="#e4f6ff" r="27.765"/><path d="m280.602 195.467c-3.088 0-6.055.512-8.829 1.442 11.004 3.69 18.935 14.076 18.935 26.322s-7.932 22.633-18.935 26.323c2.775.93 5.741 1.442 8.829 1.442 15.334 0 27.764-12.431 27.764-27.765 0-15.333-12.43-27.764-27.764-27.764z" fill="#d3effb"/><g><path d="m428.794 428.96c0-9.677-7.872-17.55-17.549-17.55h-2.658c.122-.834.207-1.681.207-2.549v-8.432c0-9.677-7.872-17.549-17.549-17.549h-.992c-2.063-15.715-7.697-30.861-16.469-44.102-2.288-3.452-6.942-4.398-10.395-2.109-3.453 2.287-4.397 6.941-2.109 10.395 7.148 10.79 11.862 23.057 13.824 35.816h-50.447c-9.677 0-17.549 7.872-17.549 17.549v8.432c0 4.746 1.901 9.051 4.973 12.213-16.848 7.273-28.672 24.045-28.672 43.532 0 12.519 4.888 23.912 12.845 32.394h-21.76l-12.793-88.075.228.166c3.197 2.334 7.238 3.047 11.107 1.844 3.824-1.189 6.777-4.04 8.102-7.819l32.289-92.155c10.554 3.341 20.523 8.666 29.177 15.625 1.386 1.114 3.046 1.655 4.695 1.655 2.193 0 4.368-.958 5.85-2.8 2.596-3.228 2.083-7.949-1.145-10.545-9.42-7.575-20.178-13.489-31.583-17.418 1.253-1.758 2.448-3.56 3.59-5.398 22.933-3.335 39.86-24.209 38.083-47.541l-.89-11.691c7.442-4.713 12.397-13.015 12.397-22.457 0-14.649-11.919-26.568-26.568-26.568h-7.681v-8.819h10.664c8.195 0 14.863-6.668 14.863-14.863v-15.042c0-8.195-6.668-14.863-14.863-14.863h-10.071c2.826-37.092 2.257-29.616 8.147-106.911.692-6.011-1.172-12.013-5.133-16.497-3.831-4.34-9.298-6.828-15-6.828h-119.209c-4.143 0-7.5 3.357-7.5 7.5s3.357 7.5 7.5 7.5h119.21c1.92 0 3.179 1.101 3.759 1.758 1.157 1.311 1.692 3.1 1.467 4.91-.015.119-.027.237-.036.356l-2.865 37.593h-186.21l-2.864-37.593c-.009-.119-.021-.237-.036-.356-.226-1.811.31-3.6 1.467-4.91.58-.657 1.839-1.758 3.759-1.758h32.364c4.143 0 7.5-3.357 7.5-7.5s-3.357-7.5-7.5-7.5h-32.364c-5.701 0-11.169 2.488-15.001 6.827-3.961 4.484-5.825 10.486-5.133 16.497.786 10.313 7.314 95.994 8.146 106.911h-10.07c-8.195 0-14.863 6.668-14.863 14.863v15.042c0 8.195 6.668 14.863 14.863 14.863h10.663v8.819h-7.68c-14.649 0-26.568 11.919-26.568 26.568 0 14.65 11.919 26.569 26.568 26.569h7.68c.034 1.231-.205 6.212.811 14.243.52 4.109 4.283 7.012 8.38 6.502 4.109-.52 7.021-4.271 6.501-8.381-.956-7.573-.691-5.286-.691-74.321h174.349v63.291c0 14.063-3.352 27.356-9.292 39.13-11.687-1.026-21.783-9.005-25.523-20.079 15.132-3.967 26.328-17.756 26.328-34.115 0-19.445-15.819-35.265-35.265-35.265s-35.265 15.819-35.265 35.265c0 17.233 12.428 31.609 28.791 34.659 3.767 16.396 16.542 29.086 32.358 33.214-15.942 20.872-41.077 34.365-69.307 34.365-33.231 0-64.057-19.345-78.531-49.282-1.802-3.729-6.287-5.291-10.017-3.487-3.729 1.803-5.291 6.287-3.487 10.017 2.509 5.19 5.447 10.132 8.762 14.791-18.401 6.344-34.91 17.806-47.296 33.052-15.093 18.577-23.405 42.015-23.405 65.993v100.61c0 8.182 6.656 14.838 14.838 14.838h313.202c9.677 0 17.549-7.873 17.549-17.55v-8.432c0-3.738-1.184-7.199-3.184-10.049 2-2.85 3.184-6.311 3.184-10.049v-8.432c0-3.738-1.184-7.199-3.184-10.049 2-2.85 3.184-6.311 3.184-10.049v-8.429zm-301.469-206.999c-6.379 0-11.568-5.19-11.568-11.569s5.189-11.568 11.568-11.568h7.68v23.138h-7.68zm201.816-147.344c-.234 3.065-.771 10.12-1.038 13.623h-181.848l-1.038-13.623zm-181.743 28.623h179.562l-2.057 26.995h-175.448zm-22.92 56.764v-14.769h225.402v14.769c-11.3 0-211.411 0-225.402 0zm135.859 63.227c0-11.174 9.091-20.265 20.265-20.265s20.265 9.091 20.265 20.265-9.091 20.265-20.265 20.265-20.265-9.091-20.265-20.265zm153.457 205.729v8.432c0 1.405-1.144 2.549-2.549 2.549h-39.991c-3.231-5.279-7.467-9.875-12.438-13.53h32.429 20c1.406-.001 2.549 1.143 2.549 2.549zm0 28.529v8.432c0 1.405-1.144 2.549-2.549 2.549h-33.22c.364-4.49.139-8.903-.823-13.529h34.044c1.405-.001 2.548 1.143 2.548 2.548zm-91.685-57.059c0-1.405 1.144-2.549 2.549-2.549h66.588c1.405 0 2.549 1.144 2.549 2.549v8.432c0 1.405-1.144 2.549-2.549 2.549h-46.588-20c-1.405 0-2.549-1.144-2.549-2.549zm-23.699 64.176c0-17.862 14.531-32.394 32.393-32.394 17.727 0 32.394 14.422 32.394 32.394 0 17.862-14.531 32.394-32.394 32.394-17.862 0-32.393-14.531-32.393-32.394zm-72.308-65.493 11.077-8.084 11.077 8.084-11.077 15.25zm41.981-4.1-21.039-15.354 26.487-45.878c6.887-2.631 13.417-5.985 19.5-9.971zm65.195-122.006c6.807-18.786 6.008-35.262 6.075-36.046h7.121l.664 8.718c.857 11.252-4.843 21.636-13.86 27.328zm13.756-74.184c6.379 0 11.568 5.189 11.568 11.568s-5.189 11.569-11.568 11.569h-7.681v-23.138h7.681zm-93.971 140.409-15.884 27.512-15.891-27.524c5.229.819 10.538 1.249 15.891 1.249 5.402 0 10.706-.425 15.884-1.237zm-52.225-5.434 26.477 45.86-21.04 15.354-24.93-71.151c6.199 4.054 12.59 7.311 19.493 9.937zm-102.632 62.754c0-20.545 7.119-40.622 20.047-56.534 11.101-13.664 26.051-23.792 42.679-29.053l32.287 92.149c1.324 3.78 4.276 6.631 8.101 7.821 3.77 1.17 7.92.485 11.108-1.843l.229-.167-12.793 88.075h-101.658zm116.815 100.448 10.606-73.017 5.484 7.549c1.411 1.942 3.667 3.092 6.068 3.092s4.657-1.149 6.068-3.092l5.484-7.55 10.606 73.018zm198.773-2.55c0 1.406-1.144 2.55-2.549 2.55h-45.895c3.698-3.941 6.731-8.509 8.919-13.53h36.976c1.405 0 2.549 1.144 2.549 2.549z"/><path d="m201.256 226.24v-6.018c0-4.143-3.357-7.5-7.5-7.5s-7.5 3.357-7.5 7.5v6.018c0 4.143 3.357 7.5 7.5 7.5s7.5-3.357 7.5-7.5z"/><path d="m237.179 288.881c6.887 0 13.776-2.073 20.473-6.218 3.522-2.18 4.61-6.802 2.43-10.324-2.181-3.523-6.804-4.611-10.324-2.43-8.582 5.312-16.576 5.311-25.156 0-3.52-2.18-8.143-1.094-10.324 2.43-2.181 3.521-1.093 8.145 2.43 10.324 6.696 4.146 13.582 6.218 20.471 6.218z"/></g></g></svg>