<svg id="Layer_1" height="512" viewBox="0 0 128 128" width="512" xmlns="http://www.w3.org/2000/svg" data-name="Layer 1"><path d="m100.456 87.975h-58.169l-11.794-52.271h81.757z" fill="#00d980"/><path d="m59.588 104.075a5.076 5.076 0 1 1 -5.076-5.075 5.077 5.077 0 0 1 5.076 5.075z" fill="#4893ff"/><path d="m101.039 104.075a5.076 5.076 0 1 1 -5.076-5.075 5.077 5.077 0 0 1 5.076 5.075z" fill="#4893ff"/><path d="m88.877 78.191a3.012 3.012 0 0 1 -2.986-3.4l3.5-26.679a3.011 3.011 0 0 1 2.986-2.62 3.013 3.013 0 0 1 2.987 3.4l-3.5 26.678a3.013 3.013 0 0 1 -2.987 2.621z" fill="#eaebf0"/><rect fill="#eaebf0" height="32.703" rx="2.809" width="6.076" x="68.914" y="45.488"/><path d="m55.027 78.191a3.012 3.012 0 0 1 -2.986-2.621l-3.5-26.678a3.012 3.012 0 0 1 2.986-3.4 3.013 3.013 0 0 1 2.987 2.62l3.5 26.679a3.013 3.013 0 0 1 -2.987 3.4z" fill="#eaebf0"/><g fill="#7c1f00"><path d="m57.5 37.454h.54a1.75 1.75 0 0 0 0-3.5h-.54a1.75 1.75 0 0 0 0 3.5z"/><path d="m28.779 36.057 10.377 45.988a1.75 1.75 0 0 0 1.7 1.365 1.772 1.772 0 0 0 .387-.043 1.75 1.75 0 0 0 1.322-2.093l-9.888-43.82h17.823a1.75 1.75 0 0 0 0-3.5h-18.608l-3.5-15.49a1.75 1.75 0 0 0 -1.702-1.364h-10.94a1.75 1.75 0 0 0 0 3.5h9.541z"/><path d="m43.4 89.725h57.06a1.752 1.752 0 0 0 1.707-1.365l11.794-52.271a1.749 1.749 0 0 0 -1.707-2.135h-46.316a1.75 1.75 0 0 0 0 3.5h44.123l-11 48.771h-56.773a1.742 1.742 0 0 0 -1 .313 7.261 7.261 0 0 0 2.1 14.211h5.16a6.827 6.827 0 1 0 11.911 0h29.54a6.824 6.824 0 1 0 12.782 3.326 1.75 1.75 0 0 0 -3.5 0 3.326 3.326 0 1 1 -3.326-3.326h11.73a1.75 1.75 0 1 0 0-3.5h-64.285a3.762 3.762 0 1 1 0-7.524zm14.442 14.35a3.327 3.327 0 1 1 -3.326-3.326 3.33 3.33 0 0 1 3.322 3.326z"/><path d="m86.119 73.052a1.749 1.749 0 0 0 -1.963 1.507 4.762 4.762 0 0 0 9.444 1.241l3.5-26.68a4.762 4.762 0 1 0 -9.444-1.239l-2.656 20.265a1.75 1.75 0 1 0 3.47.455l2.658-20.265a1.265 1.265 0 0 1 1.251-1.1 1.26 1.26 0 0 1 1.251 1.426l-3.5 26.679a1.263 1.263 0 0 1 -1.251 1.1 1.261 1.261 0 0 1 -1.251-1.425 1.749 1.749 0 0 0 -1.509-1.964z"/><path d="m72.181 79.94a4.564 4.564 0 0 0 4.559-4.559v-27.081a4.564 4.564 0 0 0 -4.559-4.559h-.457a4.564 4.564 0 0 0 -4.559 4.559v27.081a4.564 4.564 0 0 0 4.559 4.559zm-1.516-4.559v-27.081a1.06 1.06 0 0 1 1.059-1.059h.457a1.06 1.06 0 0 1 1.059 1.059v27.081a1.06 1.06 0 0 1 -1.059 1.059h-.457a1.06 1.06 0 0 1 -1.059-1.059z"/><path d="m47.949 45.359a4.757 4.757 0 0 0 -1.142 3.76l3.5 26.679a4.762 4.762 0 0 0 9.444-1.239l-3.5-26.678a4.762 4.762 0 0 0 -8.3-2.522zm4.831 2.977 3.5 26.679a1.26 1.26 0 0 1 -1.251 1.425 1.265 1.265 0 0 1 -1.251-1.1l-3.5-26.679a1.262 1.262 0 0 1 1.251-1.426 1.266 1.266 0 0 1 1.251 1.101z"/></g></svg>